<svg aria-hidden="true" style="position: absolute; width: 0; height: 0; overflow: hidden;" version="1.1" xmlns="http://www.w3.org/2000/svg" xmlns:xlink="http://www.w3.org/1999/xlink">
<defs>
<symbol id="icon-facebook" viewBox="0 0 32 32">
<path fill="#fff" style="fill: var(--color1, #fff)" opacity="0.78" d="M17.864 28v-10.936h3.689l0.546-4.273h-4.235v-2.729c0-1.224 0.339-2.071 2.118-2.071h2.24v-3.831c-0.952-0.108-2.056-0.17-3.174-0.17-0.042 0-0.084 0-0.126 0l0.007-0c-3.247 0-5.487 1.986-5.487 5.647v3.134h-3.671v4.282h3.671v10.936h4.424z"></path>
</symbol>
<symbol id="icon-instagram" viewBox="0 0 32 32">
<path fill="#fff" style="fill: var(--color1, #fff)" opacity="0.78" d="M16 9.84c-0.070-0.003-0.152-0.004-0.234-0.004-3.407 0-6.169 2.762-6.169 6.169s2.762 6.169 6.169 6.169c0.082 0 0.164-0.002 0.246-0.005l-0.012 0c3.305-0.129 5.935-2.84 5.935-6.164s-2.63-6.035-5.923-6.164l-0.012-0zM16 20.009c-2.214 0-4.009-1.795-4.009-4.009s1.795-4.009 4.009-4.009v0c2.214 0 4.009 1.795 4.009 4.009s-1.795 4.009-4.009 4.009v0zM22.4 11.049c0.795 0 1.44-0.645 1.44-1.44s-0.645-1.44-1.44-1.44v0c-0.795 0-1.44 0.645-1.44 1.44s0.645 1.44 1.44 1.44v0z"></path>
<path fill="#fff" style="fill: var(--color1, #fff)" opacity="0.78" d="M27.378 8.151c-0.637-1.618-1.893-2.874-3.47-3.497l-0.042-0.014c-0.864-0.335-1.863-0.538-2.906-0.56l-0.009-0c-1.28-0.053-1.689-0.071-4.942-0.071-3.262 0-3.68 0-4.951 0.071-1.050 0.022-2.046 0.225-2.966 0.58l0.060-0.020c-1.618 0.637-2.874 1.893-3.497 3.47l-0.014 0.042c-0.335 0.864-0.538 1.863-0.56 2.906l-0 0.009c-0.062 1.28-0.080 1.689-0.080 4.942s0 3.671 0.080 4.951c0.022 1.053 0.226 2.052 0.58 2.976l-0.020-0.060c0.64 1.613 1.896 2.866 3.47 3.488l0.042 0.014c0.924 0.364 1.911 0.569 2.907 0.604 1.289 0.053 1.689 0.071 4.951 0.071 3.253 0 3.671 0 4.942-0.071 1.053-0.022 2.052-0.226 2.976-0.58l-0.060 0.020c1.616-0.639 2.872-1.895 3.497-3.47l0.015-0.042c0.356-0.933 0.533-1.92 0.56-2.916 0.062-1.28 0.080-1.689 0.080-4.942 0-3.262 0-3.671-0.080-4.951-0.017-1.065-0.221-2.076-0.58-3.011l0.020 0.060zM25.751 20.862c-0.008 0.809-0.157 1.581-0.424 2.295l0.015-0.046c-0.415 1.050-1.233 1.864-2.257 2.266l-0.027 0.009c-0.711 0.267-1.467 0.409-2.222 0.418-1.081 0.052-2.348 0.081-3.622 0.081-0.442 0-0.884-0.004-1.325-0.011l0.067 0.001c-3.244 0-3.582 0-4.871-0.071-0.801-0.012-1.563-0.164-2.268-0.433l0.045 0.015c-1.055-0.41-1.876-1.224-2.284-2.249l-0.009-0.027c-0.267-0.711-0.409-1.467-0.418-2.222-0.051-1.091-0.080-2.371-0.080-3.657 0-0.433 0.003-0.865 0.010-1.297l-0.001 0.065c0-3.244 0-3.582 0.071-4.871 0.009-0.764 0.151-1.529 0.418-2.249 0.415-1.055 1.237-1.873 2.266-2.275l0.027-0.009c0.711-0.267 1.458-0.4 2.222-0.418 1.271-0.053 1.627-0.071 4.871-0.071 3.253 0 3.582 0 4.871 0.071 0.764 0.009 1.511 0.151 2.222 0.418 1.061 0.412 1.886 1.234 2.293 2.266l0.009 0.027c0.267 0.711 0.4 1.467 0.409 2.222 0.062 1.271 0.071 1.627 0.071 4.871 0 3.253 0 3.6-0.053 4.88h-0.018z"></path>
</symbol>
<symbol id="icon-twitter" viewBox="0 0 32 32">
<path fill="#fff" style="fill: var(--color1, #fff)" opacity="0.78" d="M26.178 10.667c0.018 0.231 0.018 0.462 0.018 0.693 0 7.102-5.404 15.289-15.289 15.289-3.031 0-5.867-0.889-8.24-2.418 0.394 0.051 0.851 0.081 1.314 0.081 2.521 0 4.839-0.867 6.673-2.32l-0.022 0.017c-2.343-0.044-4.316-1.58-5.011-3.695l-0.011-0.038c0.297 0.055 0.639 0.086 0.988 0.086 0.511 0 1.007-0.067 1.478-0.193l-0.040 0.009c-2.472-0.514-4.302-2.674-4.302-5.262 0-0.003 0-0.007 0-0.010v0.001-0.062c0.711 0.391 1.547 0.64 2.427 0.676-1.455-0.974-2.4-2.611-2.4-4.469 0-1 0.274-1.937 0.751-2.738l-0.014 0.025c2.662 3.259 6.598 5.389 11.037 5.625l0.038 0.002c-0.094-0.377-0.149-0.809-0.149-1.254 0-2.965 2.404-5.369 5.369-5.369 1.553 0 2.952 0.659 3.932 1.713l0.003 0.003c1.2-0.24 2.356-0.676 3.413-1.298-0.419 1.26-1.254 2.285-2.34 2.938l-0.024 0.014c1.147-0.135 2.192-0.429 3.162-0.863l-0.068 0.027c-0.748 1.088-1.64 2.011-2.662 2.769l-0.031 0.022z"></path>
</symbol>
<symbol id="icon-add-outline" viewBox="0 0 32 32">
<path  d="M18.667 17.333h-1.333v-1.333c0-0.736-0.597-1.333-1.333-1.333s-1.333 0.597-1.333 1.333v0 1.333h-1.333c-0.736 0-1.333 0.597-1.333 1.333s0.597 1.333 1.333 1.333v0h1.333v1.333c0 0.736 0.597 1.333 1.333 1.333s1.333-0.597 1.333-1.333v0-1.333h1.333c0.736 0 1.333-0.597 1.333-1.333s-0.597-1.333-1.333-1.333v0z"></path>
<path  d="M26.005 9.397h-9.333l-3.52-4.235c-0.243-0.302-0.61-0.496-1.023-0.501h-6.124c-0.013-0-0.028-0-0.043-0-1.802 0-3.266 1.446-3.296 3.24l-0 0.003v16.203c0.030 1.797 1.494 3.243 3.296 3.243 0.015 0 0.030-0 0.045-0l-0.002 0h20c0.010 0 0.021 0 0.032 0 1.802 0 3.266-1.445 3.296-3.24l0-0.003v-11.467c-0.030-1.797-1.494-3.243-3.296-3.243-0.015 0-0.030 0-0.045 0l0.002-0zM26.667 24.064c-0.016 0.323-0.282 0.579-0.607 0.579-0.023 0-0.045-0.001-0.067-0.004l0.003 0h-19.989c-0.013 0.001-0.029 0.002-0.044 0.002-0.327 0-0.595-0.254-0.617-0.576l-0-0.002v-16.16c0.022-0.324 0.29-0.578 0.617-0.578 0.019 0 0.038 0.001 0.057 0.003l-0.002-0h5.504l3.467 4.245c0.244 0.298 0.612 0.488 1.023 0.491h10.006c0.013-0.001 0.029-0.002 0.044-0.002 0.327 0 0.595 0.254 0.617 0.576l0 0.002v11.424z"></path>
</symbol>
<symbol id="icon-like" viewBox="0 0 32 32">
<path fill="#fff" style="fill: var(--color1, #fff)" opacity="0.38" d="M22.663 6c-0.020-0-0.044-0-0.068-0-2.755 0-5.178 1.421-6.576 3.57l-0.018 0.030c-1.417-2.179-3.84-3.6-6.595-3.6-0.024 0-0.048 0-0.072 0l0.004-0c-4.4 0-8 3.6-8 8 0 7.931 14.663 16 14.663 16s14.663-8 14.663-16c0-4.4-3.6-8-8-8z"></path>
</symbol>
</defs>
</svg>
